/* XPM */
static char *bluedoor[] = {
/* columns rows colors chars-per-pixel */
"64 64 256 2",
"   c black",
".  c #080705",
"X  c #0A0904",
"o  c #0C0C0B",
"O  c #120F07",
"+  c #110F0A",
"@  c #15130B",
"#  c #1A160B",
"$  c #1C190E",
"%  c #141414",
"&  c #1C1A10",
"*  c #1C1C1D",
"=  c #211C0E",
"-  c #201C12",
";  c #28200C",
":  c #252112",
">  c #2D2614",
",  c #27231F",
"<  c #362A13",
"1  c #392D14",
"2  c #352E19",
"3  c #33301D",
"4  c #3C331A",
"5  c #212121",
"6  c #2C2823",
"7  c #272728",
"8  c #272828",
"9  c #2B2C2C",
"0  c #332F2A",
"q  c #363124",
"w  c #3C3623",
"e  c #3E3A24",
"r  c #3D362C",
"t  c #343434",
"y  c #393733",
"u  c #3D3935",
"i  c #3B3B3B",
"p  c #412F17",
"a  c #413119",
"s  c #48331B",
"d  c #443A1E",
"f  c #483818",
"g  c #543C1C",
"h  c #443C23",
"j  c #4A3C21",
"k  c #513C24",
"l  c #403B35",
"z  c #483F33",
"x  c #433E3B",
"c  c #4C4223",
"v  c #464229",
"b  c #4A452A",
"n  c #4F492D",
"m  c #524524",
"M  c #5C4020",
"N  c #554826",
"B  c #584B27",
"V  c #584228",
"C  c #504A2E",
"Z  c #5B4E29",
"A  c #5F502A",
"S  c #44413D",
"D  c #4C443C",
"F  c #534D30",
"G  c #5B4C30",
"H  c #51463E",
"J  c #575133",
"K  c #5B5434",
"L  c #5E5837",
"P  c #6C4824",
"I  c #6D4729",
"U  c #6F482A",
"Y  c #744C28",
"T  c #63542B",
"R  c #67582D",
"E  c #6C5B2F",
"W  c #644F32",
"Q  c #655034",
"!  c #6E5E31",
"~  c #645D3A",
"^  c #69623D",
"/  c #736234",
"(  c #786736",
")  c #7C6A37",
"_  c #3F4141",
"`  c #434341",
"'  c #4D4943",
"]  c #474849",
"[  c #4B4D4E",
"{  c #534A41",
"}  c #565046",
"|  c #5C5146",
" . c #5C5449",
".. c #4E4F50",
"X. c #4F5151",
"o. c #515353",
"O. c #555758",
"+. c #565858",
"@. c #595B5C",
"#. c #615145",
"$. c #665A41",
"%. c #6C5C44",
"&. c #64554A",
"*. c #63594D",
"=. c #6A5C4E",
"-. c #705E46",
";. c #655C50",
":. c #6F5D50",
">. c #746C43",
",. c #73624D",
"<. c #797146",
"1. c #7E764A",
"2. c #746452",
"3. c #7A6555",
"4. c #7B6957",
"5. c #5F6162",
"6. c #626465",
"7. c #656768",
"8. c #67696A",
"9. c #6A6C6D",
"0. c #6C6F70",
"q. c #6E7071",
"w. c #707374",
"e. c #797C7D",
"r. c #815736",
"t. c #905C34",
"y. c #925F38",
"u. c #87733C",
"i. c #8B773E",
"p. c #9C6F4D",
"a. c #867C4D",
"s. c #897F4E",
"d. c #927D41",
"f. c #816B5A",
"g. c #886D59",
"h. c #877C57",
"j. c #897F50",
"k. c #8C715D",
"l. c #94755D",
"z. c #9A775C",
"x. c #9E795C",
"c. c #9C7353",
"v. c #9B8444",
"b. c #8C8352",
"n. c #918754",
"m. c #938956",
"M. c #968C58",
"N. c #988E59",
"B. c #9C925B",
"V. c #A48C49",
"C. c #AC934C",
"Z. c #B2984F",
"A. c #A2975F",
"S. c #A3985F",
"D. c #B79C51",
"F. c #B89D52",
"G. c #BEA255",
"H. c #A69A60",
"J. c #AA9E63",
"K. c #ADA265",
"L. c #B0A467",
"P. c #B1A568",
"I. c #B6A96B",
"U. c #BAAD6D",
"Y. c #BDB06F",
"T. c #B4A57A",
"R. c #BFB270",
"E. c #C5A757",
"W. c #CBAD5B",
"Q. c #CFB05C",
"!. c #D3B45E",
"~. c #D6B660",
"^. c #DDBC62",
"/. c #DCBF6F",
"(. c #C2AE76",
"). c #C4B373",
"_. c #CCB574",
"`. c #C7B974",
"'. c #CBBD77",
"]. c #CDBF78",
"[. c #D0B773",
"{. c #D4BA71",
"}. c #D9BE70",
"|. c #E0BF64",
" X c #DEC06F",
".X c #CFC078",
"XX c #D1C37A",
"oX c #D7C87E",
"OX c #D9CA7F",
"+X c #E5C366",
"@X c #E3C46D",
"#X c #E9C769",
"$X c #EECB6B",
"%X c #F0CF70",
"&X c #F1D173",
"*X c #F3D679",
"=X c #F5D97D",
"-X c blue",
";X c #7E8081",
":X c #838687",
">X c #878886",
",X c #8C8B85",
"<X c #898A8A",
"1X c #959387",
"2X c #9A978A",
"3X c #909090",
"4X c #9F9D90",
"5X c #9C9F9F",
"6X c #ADAA9C",
"7X c #A0A0A0",
"8X c #A8AAAB",
"9X c #B5B2A4",
"0X c #BAB6A7",
"qX c #BEBAA9",
"wX c #B4B4B4",
"eX c #C2BC9D",
"rX c #DBCD80",
"tX c #DFD083",
"yX c #E4D586",
"uX c #EFDF8B",
"iX c #F7DE82",
"pX c #F8E085",
"aX c #F3E38F",
"sX c #FAE58B",
"dX c #F6E690",
"fX c #F8E791",
"gX c #FFEE96",
"hX c #FFEE9C",
"jX c #CBC7B6",
"kX c #D0CCBA",
"lX c #D6D2BF",
"zX c #FFF0A4",
"xX c #FFF0A9",
"cX c #FFF2B3",
"vX c #FFF3BD",
"bX c #C0C0C0",
"nX c #C6C8C8",
"mX c #DAD6C2",
"MX c #DCD8C2",
"NX c #D9D9D9",
"BX c #E2DEC8",
"VX c #FFF5C6",
"CX c #FFF6CA",
"ZX c #ECE7D0",
"AX c #F1ECD5",
"SX c #FFF7D3",
"DX c #FFF8D6",
"FX c #F6F1D9",
"GX c #FCF6DC",
"HX c #FFF9DC",
"JX c gray91",
"KX c #FFFAE3",
"LX c #FFFBEA",
"PX c #FFFCF2",
"IX c #FEFDFD",
"UX c #F3F3F3",
/* pixels */
"a 4 p p p p p p =.*. .} ' ' S u y u u u t i x i i i i t t t i y t i i i _ i ` ` ` ` S ` x i ` ` S ` i i i ` ` ] ] x y a p a 4 p ",
"P P P P P P P P 5 wXwXNXNXJXUXIXIXIXIXIXIXIXIXPXLXLXKXKXHXHXDXSXSXCXVXVXVXVXVXVXVXVXVXVXVXVXCXCXVXCXCXVXCXCXCXCXCXeXD P P P P P ",
"t.t.t.t.t.t.t.t.t LXvXvXcXcXxXxXxXzXzXhXgXgXgXgXgXgXgXgXgXgXgXgXgXgXgXgXgXgXgXgXgXgXgXgXgXgXgXgXgXgXgXgXgXgXgXgXgXR.&.t.t.t.t.t.",
"g g g g g g g 1 t SXgXgXgXgXgXgXgXgXgXgXgXgXgXgXgXgXgXgXgXgXgXgXgXgXgXgXgXgXgXgXgXgXgXgXgXgXgXgXgXgXgXgXgXgXgXgXgXR.` g = 1 g g ",
"f f P Y Y Y Y g t DXgXgX.X^ L K J F F F n b v e e e e e e e b n F J K K L L ^ >.<.1.a.n.M.B.H.P.I.R..XoXtXfXgXgXgXY.{ t.; g t.P ",
"f f P Y Y Y M g t HXgXgXJ.t 8.8.0.0.q.q.q.w.w.w.w.w.w.q.q.q.0.0.7.7.7.7.6.6.@.+.@.+.X.....] ] _ _ _ i t o R.gXgXgXU.D t.; g t.P ",
"f f k Y Y Y g g t DXgXgXH._ ;X(.)._._._.[.{.{.{.}.}.}.}. X X X X X X X X@X X X X}.}.}.}.{.{.}.{._._._.).q U.gXgXgXI.H t.; g t.P ",
"g f g P Y Y g g t DXgXgXM.] :X%X$X$X$X$X$X$X$X$X$X$X$X$X$X$X$X$X$X$X$X$X$X$X$X$X$X$X$X$X$X$X$X$X$X$X$X$Xh U.gXgXgXI.} t.; g t.P ",
"P f f M Y M f g t DXgXgXM.[ :X$X$X$X$X$X$X$X$X$X$X$X$X$X$X$X$X$X$X$X$X$X$X$X$X$X$X$X$X$X$X$X$X$X$X$X$X$Xc Y.gXgXgXP.| t.; g t.g ",
"P f g f M g f g i DXgXgXM.[ :X$X$X$X$X$X$X                        $X$X$X                        $X$X$X$Xc Y.gXgXgXK.| t.; g t.g ",
"Y g f f g f f g S SXgXgXm.X.:X$X$X$X$X$X+X  -X-X-X-X-X-X-X-X-X-X  $X$X$X  -X-X-X-X-X-X-X-X-X-X  $X$X$X$Xm Y.gXgXgXA.| t.; g t.g ",
"Y g f f f f g g S DXgXgXb.X.:X$X$X$X$X$X^.  -X-X-X-X-X-X-X-X-X-X  $X$X$X  -X-X-X-X-X-X-X-X-X-X  $X$X$X$XN Y.gXgXgXB. .t.; g t.f ",
"P Y f f f g Y g x SXgXgXb.X.:X$X$X$X$X$X~.  -X-X-X-X-X-X-X-X-X-X  $X$X$X  -X-X-X-X-X-X-X-X-X-X  $X$X$X$XN Y.gXgXgXN.*.t.; g t.f ",
"P Y g f f g Y g x SXgXgXb.O.:X$X$X$X$X$X~.  -X-X-X-X-X-X-X-X-X-X  $X$X$X  -X-X-X-X-X-X-X-X-X-X  $X$X$X$XN Y.gXgXgXm.*.t.; g t.f ",
"M Y Y f g Y Y g l DXgXgXb.O.>X$X$X$X$X$X~.  -X-X-X-X-X-X-X-X-X-X  $X$X$X  -X-X-X-X-X-X-X-X-X-X  $X$X$X$Xm Y.gXgXgXb.=.t.; g t.f ",
"g Y Y Y g Y M g u DXgXgXb.@.>X$X$X$X$X$X~.  -X-X-X-X-X-X-X-X-X-X  $X$X$X  -X-X-X-X-X-X-X-X-X-X  $X$X$X$Xc .XgXgXgX1.=.t.; g t.g ",
"f P Y Y M Y g g u DXgXgXb.+.>X$X$X$X$X$X!.  -X-X-X-X-X-X-X-X-X-X  $X$X$X  -X-X-X-X-X-X-X-X-X-X  $X$X$X$Xj .XgXgXgX<.2.t.; g t.g ",
"f P Y Y Y Y g g u DXgXgXb.+.>X$X$X$X$X$X+X  -X-X-X-X-X-X-X-X-X-X  $X$X$X  -X-X-X-X-X-X-X-X-X-X  $X$X$X$X4 oXgXgXgX<.2.t.; c t.g ",
"f M P Y Y Y f g x DXgXgXs.@.>X$X$X$X$X$X$X                        $X$X$X                        $X$X$X$X2 OXgXgXgX^ ,.t.; g t.P ",
"f g P Y Y M f g l DXgXgX1.@.>X$X$X$X$X$X$X$X$X$X$X$X$X$X$X$X$X$X$X$X$X$X$X$X$X$X$X$X$X$X$X$X$X$X$X$X$X$X< tXgXgXgXL 2.t.; g t.P ",
"f f M Y Y g f g x SXgXgX1.@.,X$X$X$X$X$X$X$X$X$X$X$X$X$X$X$X$X$X$X$X$X$X$X$X$X$X$X$X$X$X$X$X$X$X$X$X$X$X; yXgXgXgXK ,.t.; g t.P ",
"f f g Y Y g f g x DXgXgXa.@.,X$X$X$X$X$X$X|.^.^.^.^.^.^.^.^.+X#X$X$X$X$X$X$X$X#X$X#X#X$X$X$X$X$X$X$X$X$X$ uXgXgXgXC -.t.; g t.P ",
"g f g M g f f g x HXgXgX1.@.>X$X$X$X$X$X^.                      $X$X$X$X                      $X$X$X$X$X# aXgXgXgXh ~ t.; g t.P ",
"g f f g f f g g { DXgXgXa.@.,X$X$X$X$X$X~.  -X-X-X-X-X-X-X-X-X  $X$X$X$X  -X-X-X-X-X-X-X-X-X  $X$X$X$X$XO fXgXgXgXw ,.t.; g t.P ",
"g f f f f f g g H DXgXgXb.+.,X$X$X$X$X$X~.  -X-X-X-X-X-X-X-X-X  $X$X$X$X  -X-X-X-X-X-X-X-X-X  $X$X$X$X$XX gXgXgXgX3 Q t.; g t.M ",
"P f f f f f P g H DXgXgXb.O.,X$X$X$X$X$X~.  -X-X-X-X-X-X-X-X-X  $X$X$X$X  -X-X-X-X-X-X-X-X-X  $X$X$X$X$X+ gXgXgXgX: Q t.; g t.g ",
"P f f f f f P g H DXgXgXn.o.,X$X$X$X$X$X!.  -X-X-X-X-X-X-X-X-X  $X$X$X$X  -X-X-X-X-X-X-X-X-X  $X$X$X$X#X@ gXgXgXgX& W t.; g t.g ",
"P g f f f g M g H HXgXgXm.o.,X$X$X$X$X$X!.  -X-X-X-X-X-X-X-X-X  $X$X$X$X  -X-X-X-X-X-X-X-X-X  $X$X$X$X+X& gXgXgXgX@ g t.; g t.f ",
"M g f f f g g g D HXgXgXm.o.,X$X$X$X$X$X!.  -X-X-X-X-X-X-X-X-X  $X$X$X$X  -X-X-X-X-X-X-X-X-X  $X$X$X$X^.: gXgXgXgXo g t.; g t.f ",
"g P f f f P g g H HXgXgXm.X.,X$X$X$X$X$X~.  -X-X-X-X-X-X-X-X-X  $X$X$X$X  -X-X-X-X-X-X-X-X-X  $X$X$X$XQ.3 gXgXgXfX% f t.; g t.f ",
"g P g f f P f g D HXgXgXM.X.,X$X$X$X$X$X!.  -X-X-X-X-X-X-X-X-X  $X$X$X$X  -X-X-X-X-X-X-X-X-X  $X$X$X$XQ.w gXgXgXfX, g t.; g t.f ",
"f M g f P M f g D HXgXgXM.[ ,X$X$X$X$X$X!.  -X-X-X-X-X-X-X-X-X  $X$X$X$X  -X-X-X-X-X-X-X-X-X  $X$X$X$XG.v gXgXgXuX6 g t.; g t.f ",
"f g P g P g f g D GXgXgXN.[ ,X$X$X$X$X$X!.  -X-X-X-X-X-X-X-X-X  $X$X$X$X  -X-X-X-X-X-X-X-X-X  $X$X$X$XF.C gXgXgXyX0 g t.; g t.f ",
"f g P g P g f g H GXgXgXB.] ,X$X$X$X$X$X!.  -X-X-X-X-X-X-X-X-X  $X$X$X$X  -X-X-X-X-X-X-X-X-X  $X$X$X$XZ.K gXgXgXyXu g t.; g t.f ",
"f f M P M f f g H GXgXgXS.` ,X$X$X$X$X$X$X                      $X$X$X$X                      $X$X$X$XV.^ gXgXgXoXD g t.; g t.g ",
"f f g M g f f g | GXgXgXK._ ,X$X+XR q q T !.$X$X$X$X$X$X$X$X$X$X$X$X$X$X$X$X$X$X$X$X$X$X$X#X#X$X$X$X$Xv.>.gXgXgX'.D g t.; g t.g ",
"f f f g f f f g #.FXgXgXK._ ,X$Xm <XIXIX7X> $X$X$X$X$X$X$X$X$X$X$X$X$X$X$X$X$X$X$X$X$X$X$X$X$X$X$X$X$Xd.1.gXgXgX`.H g t.; g t.M ",
"f f f f f f f g #.FXgXgXP.i ,X$X. IXIXIXNX% !.$X$X$X$X$X$X$X$X$X$X$X$X$X$X$X$X$X$X$X$X$X$X$X$X$X$X$X$Xi.s.gXgXgX).| g t.; g t.P ",
"f f f f f f g g #.AXgXgXI.i ,X$X+ IXIXIX8X7 F.$X$X$X$X$X$X$X$X$X$X$X$X$X$X$X$X$X$X$X$X$X$X$X$X$X$X$X$Xu.M.gXgXgXI.%.g t.; g t.P ",
"g f f f f f g g #.ZXgXgXR.y ,X$X2 <XnX5X8.= #X$X$X$X$X$X$X$X$X$X$X$X$X$X$X$X$X$X$X$X$X$X$X$X$X$X$X$X$X) B.gXgXgXK.=.g t.; g t.P ",
"g f f f f f M g #.BXgXgX).t ,X$X!.4 5 9 - W.$X$X$X$X$X$X$X$X$X$X$X$X$X$X$X$X$X$X$X$X$X$X$X$X$X$X$X$X$X/ K.gXgXgXK.:.g t.; g t.g ",
"P g f f f g M g &.MXgXgX`.9 ,X$X$X$X^.W.                          $X$X                          $X$X$X/ I.gXgXgXH.3.g t.; g t.g ",
"P g f f f g P g &.mXgXgX'.9 ,X$X$X$X$X$X  -X-X-X-X-X-X-X-X-X-X-X  $X$X  -X-X-X-X-X-X-X-X-X-X-X  $X$X$XR R.gXgXgXB.2.g t.; g t.f ",
"P M g f g M P g &.mXgXgX.X8 >X$X$X$X$X$X  -X-X-X-X-X-X-X-X-X-X-X  $X$X  -X-X-X-X-X-X-X-X-X-X-X  $X$X$XA XXgXgXgXM.4.g t.; g t.f ",
"P P g g g P M g =.kXgXgXOX5 >X$X$X$X$X$X  -X-X-X-X-X-X-X-X-X-X-X  $X$X  -X-X-X-X-X-X-X-X-X-X-X  $X$X$XB rXgXgXgXM.2.g t.; g t.f ",
"M P M g M P g g =.kXgXgXtX* >X$X$X$X$X$X  -X-X-X-X-X-X-X-X-X-X-X  $X$X  -X-X-X-X-X-X-X-X-X-X-X  $X$X$Xm yXgXgXgXb.2.g t.; g t.f ",
"g P P M P P g g :.jXgXgXyX* :X$X$X$X$X$X  -X-X-X-X-X-X-X-X-X-X-X  $X$X  -X-X-X-X-X-X-X-X-X-X-X  $X$X$Xd dXsX=X%X( ,.g t.; g t.f ",
"g P P M P P f g 2.qXgXgXyX% :X$X$X$X$X$X  -X-X-X-X-X-X-X-X-X-X-X  $X$X  -X-X-X-X-X-X-X-X-X-X-X  $X$X$X4 sX$X$X$X/ ,.g t.; g t.f ",
"f P Y Y Y P f g ,.qXgXgXaXo :X$X$X$X$X$X  -X-X-X-X-X-X-X-X-X-X-X  $X$X  -X-X-X-X-X-X-X-X-X-X-X  $X$X$Xj sX$X$X$X! %.g t.; g t.f ",
"f M Y Y Y P f g 3.qXgXgXsXo ;X$X$X$X$X$X  -X-X-X-X-X-X-X-X-X-X-X  $X$X  -X-X-X-X-X-X-X-X-X-X-X  %X$X$Xd sX$X$X$XT $.g t.; g t.f ",
"f g P Y Y P f g 3.9XgXgXfXo :X@X$X$X$X$X  -X-X-X-X-X-X-X-X-X-X-X  $X$X  -X-X-X-X-X-X-X-X-X-X-X  $X$X$Xv sX$X$X$XZ $.g t.; g t.f ",
"f g P Y Y M f g f.6XgXgXgXo ;X%X$X$X$X$X  -X-X-X-X-X-X-X-X-X-X-X  $X$X  -X-X-X-X-X-X-X-X-X-X-X  $X$X$Xc pX$X$X$Xm A g t.; g t.g ",
"f f M Y P M f g g.4XgXgXgX. ;X@X$X$X$X$X  -X-X-X-X-X-X-X-X-X-X-X  $X$X  -X-X-X-X-X-X-X-X-X-X-X  $X$X$Xv =X$X$X$Xh G g t.; g t.g ",
"f f g P P g f g k.2XgXgXgX+ ;X@X$X$X$X$X  -X-X-X-X-X-X-X-X-X-X-X  $X$X  -X-X-X-X-X-X-X-X-X-X-X  $X$X$Xb =X$X$X$Xd W g t.; g t.M ",
"f f g P M g f g k.1XgXgXsX# e. X$X$X$X$X  -X-X-X-X-X-X-X-X-X-X-X  $X$X  -X-X-X-X-X-X-X-X-X-X-X  $X$X$Xv =X$X$X$X4 g g t.; g t.M ",
"f f f M M f f g k.,XgXpX$X& w.}.$X$X$X$X  -X-X-X-X-X-X-X-X-X-X-X  $X$X  -X-X-X-X-X-X-X-X-X-X-X  $X$X+Xb =X%X$X$X2 g g t.; g t.P ",
"f f f g g f f g l.h.&X$X$X> w./.$X$X$X$X  -X-X-X-X-X-X-X-X-X-X-X  $X$X  -X-X-X-X-X-X-X-X-X-X-X  $X$X^.F =X$X$X$Xw g g t.; g t.P ",
"g f f f f f g g l.( $X$X$X4 9.{.$X$X$X$X  -X-X-X-X-X-X-X-X-X-X-X  $X$X  -X-X-X-X-X-X-X-X-X-X-X  $X$XW.~ *X$X$X$Xw P g t.; g t.Y ",
"g f f f f f g g z.E $X$X$Xd 7.{.$X$X$X$X  -X-X-X-X-X-X-X-X-X-X-X  $X$X  -X-X-X-X-X-X-X-X-X-X-X  $X$XE.~ *X$X$X$Xr P g t.= g t.Y ",
"M f f f f f P g z.A $X$X$Xm 5._.$X$X$X$X                          $X$X                          $X$XD.>.&X$X$X$Xz P g t.; g t.Y ",
"M g f f f g P g x.N $X$X$XB @._.$X$X$X$X$X$X$X$X$X$X$X$X$X$X$X$X$X$X$X$X$X$X$X$X$X$X$X$X$X$X$X$X$X$XC.<.&X$X$X$Xl M g t.; g t.Y ",
"P g f f f g P g c.j $X$X$XA +.T.{.{.[.{.{.}.{.}.}.}.}.}.}.}././././././. X X X X X X X X}.}.}.}.}.@Xd.a.$X$X$X#XS g g t.; g t.Y ",
"P M f f f g P g p.> ^.+X+XT X.:X:X:X:X:X:X:X:X:X:X:X:X:X:X:X:X:X:X:X:X;X:X;Xe.w.w.w.w.0.9.9.6.5.5.5.Z N d.d.i.i.D f g t.; g t.Y ",
"M M M M M M M g y.- a P p < < 1 1 1 1 1 s s s s s a U = p U s < < p U = s Y j a a s k j r.> k r.V j V V j j c d m f g t.; g t.M "
};
