/* XPM */
static char *door[] = {
/* columns rows colors chars-per-pixel */
"64 64 256 2",
"   c #030202",
".  c #0B0A05",
"X  c #0C0C0B",
"o  c #080705",
"O  c #120F07",
"+  c #100F0A",
"@  c #15120A",
"#  c #1A160C",
"$  c #1C190E",
"%  c #151515",
"&  c #1C1B14",
"*  c #1C1C1A",
"=  c #191710",
"-  c #221C0E",
";  c #201E13",
":  c #28200C",
">  c #252112",
",  c #2C2514",
"<  c #2B271B",
"1  c #332A15",
"2  c #392D14",
"3  c #352E19",
"4  c #34301D",
"5  c #3B331B",
"6  c #3F381F",
"7  c #212221",
"8  c #2B2923",
"9  c #2B2C2C",
"0  c #272726",
"q  c #363223",
"w  c #3C3623",
"e  c #3E3A24",
"r  c #37342A",
"t  c #343434",
"y  c #393733",
"u  c #3C3935",
"i  c #3B3B3B",
"p  c #332F2A",
"a  c #412F17",
"s  c #413119",
"d  c #48331B",
"f  c #443A1E",
"g  c #483818",
"h  c #543C1C",
"j  c #443D24",
"k  c #4A3D21",
"l  c #513C24",
"z  c #403B35",
"x  c #433E3B",
"c  c #483F33",
"v  c #4C4223",
"b  c #464229",
"n  c #4A452B",
"m  c #4F492D",
"M  c #524524",
"N  c #5C4020",
"B  c #554826",
"V  c #584228",
"C  c #504A2E",
"Z  c #5B4E29",
"A  c #584B27",
"S  c #5F502A",
"D  c #44413D",
"F  c #4C443C",
"G  c #534D30",
"H  c #51463E",
"J  c #5B4C30",
"K  c #565032",
"L  c #5B5434",
"P  c #5E5837",
"I  c #5B5539",
"U  c #6C4824",
"Y  c #6D4729",
"T  c #6F482A",
"R  c #744C28",
"E  c #63542B",
"W  c #6A5A2F",
"Q  c #67582D",
"!  c #644F32",
"~  c #6E5E31",
"^  c #645D3A",
"/  c #655034",
"(  c #69623D",
")  c #746234",
"_  c #786736",
"`  c #7C6A37",
"'  c #7E6C38",
"]  c #3F4141",
"[  c #434341",
"{  c #4D4943",
"}  c #474849",
"|  c #4B4C4C",
" . c #534A41",
".. c #504F48",
"X. c #5C5146",
"o. c #5A5248",
"O. c #4E4F50",
"+. c #4F5151",
"@. c #525353",
"#. c #565858",
"$. c #5A5C5C",
"%. c #555758",
"&. c #615145",
"*. c #6C5C44",
"=. c #64554A",
"-. c #63594D",
";. c #6A5C4E",
":. c #665A41",
">. c #705E46",
",. c #6A5C50",
"<. c #6F6841",
"1. c #746C43",
"2. c #73624D",
"3. c #797146",
"4. c #7D754A",
"5. c #746452",
"6. c #7A6555",
"7. c #7B6957",
"8. c #5F6162",
"9. c #626364",
"0. c #67696A",
"q. c #6A6C6C",
"w. c #656768",
"e. c #6C6F70",
"r. c #6E7071",
"t. c #717474",
"y. c #7A7C7C",
"u. c #815736",
"i. c #905C34",
"p. c #925F38",
"a. c #806D38",
"s. c #86723C",
"d. c #8B763E",
"f. c #8D783F",
"g. c #9C6F4D",
"h. c #847B4D",
"j. c #897F4E",
"k. c #8F7A40",
"l. c #927D41",
"z. c #866D5A",
"x. c #8A7858",
"c. c #99765B",
"v. c #978043",
"b. c #9C8545",
"n. c #8C8352",
"m. c #8F875D",
"M. c #938956",
"N. c #968C58",
"B. c #998E59",
"V. c #918754",
"C. c #9C925B",
"Z. c #A48C49",
"A. c #A48C49",
"S. c #AD934D",
"D. c #A2975F",
"F. c #A3985F",
"G. c #B79C51",
"H. c #B2984F",
"J. c #BDA154",
"K. c #958F72",
"L. c #8F8C78",
"P. c #A69A61",
"I. c #AA9E63",
"U. c #ADA265",
"Y. c #B0A467",
"T. c #B2A669",
"R. c #B6A96B",
"E. c #BAAD6D",
"W. c #BDB06F",
"Q. c #BFB270",
"!. c #B4A57A",
"~. c #C3A657",
"^. c #C7A958",
"/. c #CBAD5B",
"(. c #CFB15D",
"). c #D3B45E",
"_. c #D6B660",
"`. c #DDBC62",
"'. c #DCBF6F",
"]. c #C4B373",
"[. c #CCB574",
"{. c #CABC76",
"}. c #C9BC77",
"|. c #D0B773",
" X c #D4BA71",
".X c #D9BE70",
"XX c #C2AE76",
"oX c #E0BF64",
"OX c #DEC06F",
"+X c #CFC179",
"@X c #D2C47A",
"#X c #D6C87D",
"$X c #D9CA7F",
"%X c #E5C366",
"&X c #E3C46D",
"*X c #E9C769",
"=X c #EECB6B",
"-X c #F0CF70",
";X c #F1D173",
":X c #F3D679",
">X c #F5D97D",
",X c #7E8081",
"<X c #838686",
"1X c #878886",
"2X c #8C8B85",
"3X c #8B8B8B",
"4X c #929292",
"5X c #9B9B9B",
"6X c #9F9D90",
"7X c #979588",
"8X c #ADAA9C",
"9X c #A7A8A8",
"0X c #BBB7A7",
"qX c #B7B7B7",
"wX c #C4BE9E",
"eX c #CFC384",
"rX c #DCCD81",
"tX c #DFD083",
"yX c #E3D485",
"uX c #EDDD8A",
"iX c #F7DE82",
"pX c #F8E085",
"aX c #FAE58B",
"sX c #F3E38F",
"dX c #F6E690",
"fX c #FFEE96",
"gX c #FFEE9B",
"hX c #F8E791",
"jX c #D8D4BD",
"kX c #CECAB8",
"lX c #FFEFA2",
"zX c #FFF0A5",
"xX c #FFF1AA",
"cX c #FFF2B3",
"vX c #FFF4BC",
"bX c #C4C4C4",
"nX c #DDD9C4",
"mX c #D9D9D9",
"MX c #E2DEC5",
"NX c #FFF5C5",
"BX c #FFF6CB",
"VX c #EBE7D3",
"CX c #E9E7DB",
"ZX c #FFF7D2",
"AX c #FFF8D6",
"SX c #FCF6DC",
"DX c #FFF9DC",
"FX c #F6F1D9",
"GX c #F1ECD5",
"HX c #FFFAE4",
"JX c #FFFBEA",
"KX c #F7F4E7",
"LX c #FEFCF5",
"PX c #FDFDFD",
"IX c #F4F4F4",
"UX c #E9E9E9",
/* pixels */
"s 5 a a a a 2 s ;.o.o.o.{ F D u y i u y y i D i i i i i t t i t i i i i i i [ [ [ [ D D [ i D D D D i i i [ [ } { x t a s a 5 a ",
"U U U U U R U U 7 qXqXmXmXUXIXPXPXPXPXPXPXPXLXLXJXJXHXDXDXDXAXZXBXBXNXBXBXNXNXNXNXNXNXNXNXBXBXBXBXBXBXBXBXBXBXBXBXwXF U U U U U ",
"i.i.i.i.i.i.i.i.t JXvXvXcXcXxXxXzXzXzXfXgXfXfXfXfXfXfXfXfXfXfXfXfXfXfXfXfXfXfXfXfXfXfXfXfXfXfXfXfXfXfXfXfXfXfXfXgXQ.X.i.i.i.i.i.",
"h h h h h h h 2 t AXfXfXfXfXfXgXfXfXfXfXfXfXfXfXfXfXfXfXfXfXfXfXfXfXfXfXfXfXfXfXfXfXfXgXfXfXfXfXfXfXfXfXfXfXfXfXfXW.{ h : 2 h h ",
"g g U R R R R h t AXfXfX+X( P L K G C C n n b e e e e e e e n m C K K L P P ( 1.3.4.h.V.N.C.P.Y.R.W.+X#XtXhXfXfXfXW.{ i.: h i.U ",
"g g U R R R h h t AXfXfXP.t 0.0.q.r.t.t.t.t.t.r.r.r.t.r.t.r.e.q.0.0.0.w.9.9.8.%.$.%.@.+.| } } [ ] ] i t X W.fXfXfXE.F i.: h i.U ",
"g g h R R R h h t AXfXfXP.] <XXX].[.[.[.{. X X X.X XOX.XOXOX.XOXOXOXOXOXOXOXOXOXOX XOX X.X X X X[.[.[.].q E.fXfXfXE. .i.: h i.U ",
"h g h R R R h h t AXfXgXN.} <X=X=X=X=X=X=X=X=X=X-X=X=X=X-X=X=X=X=X=X=X=X=X=X=X=X=X=X=X=X=X=X=X=X=X=X=X=Xj E.fXfXfXT. .i.: h i.U ",
"U g g l R U g h t AXfXfXN.| <X=X=X=X=X=X=X=X=X=X=X=X=X-X=X=X=X=X=X=X=X=X=X=X=X=X=X=X=X=X=X=X=X=X=X=X=X=Xv E.fXfXfXT.X.i.: h i.h ",
"U g h g h h g h i AXfXfXN.| <X=X=X=X=X=X=X$ # $ $ : , 2 1 3 4 S =X=X=X=XS.` d.v.A.S.G./._.=X=X=X=X=X=X=Xv W.fXfXfXU.X.i.: h i.h ",
"R h g g h g g h D ZXfXfXM.+.<X=X=X=X=X=X%X& IXKXVXMXMXjXjXjXeX, =X=X=X=X) 9.4X1Xx.t.q.9.+.r ` =X=X=X=X=XB W.fXfXfXD.X.i.: h i.h ",
"R h g g g g h h D AXfXfXV.+.<X=X=X=X=X=XOX& ZXfXfXfXfXfXfXfXuX, =X=X=X=X_ 5XNXfXcXzXcXcXzXT._ =X=X=X=X=XB W.fXfXfXC.o.i.: h i.g ",
"U R g g g h R h x AXfXfXn.+.<X=X=X=X=X=X).* ZXfXfXfXfXfXfXfXtX1 =X=X=X=X_ 5XcXfXlXgXfXfXfXT._ =X=X=X=X=XB W.fXfXfXN.o.i.: h i.g ",
"U R h g g h R h x AXfXfXn.@.<X=X=X=X=X=X).* AXfXfXfXfXfXfXfX$X1 =X=X=X=X' 5XvXfXfXfXfXfXfXU._ =X=X=X=X=XB Q.fXfXfXM.,.i.: h i.g ",
"N R R g h R R h z AXfXfXn.%.1X=X=X=X=X=X).* DXfXfXfXfXfXfXfX@X1 =X=X=X=Xd.5XvXfXfXfXfXfXfXC.` =X=X=X=X=XM W.fXfXfXn.;.i.: h i.g ",
"h R R R h R h h u AXfXfXn.$.1X=X=X=X=X=X`.; DXfXfXfXfXfXfXfX+X3 =X=X=X=Xf.4XcXfXfXfXfXfXfXB.' =X=X=X=X=Xv +XfXfXfX4.2.i.: h i.h ",
"g U R R N R h h u AXfXfXn.%.1X=X=X=X=X=X_.* NXfXfXfXfXfXfXfX+X5 =X=X=X=Xk.L.gXfXfXfXfXfXfXB.' =X=X=X=X=Xv @XfXfXfX3.5.i.- h i.h ",
"g U R R R R h h u AXfXfXn.$.2X=X=X=X=X=X`.o I L L K n n b j 4 v =X=X=X=XZ.- , 1 4 5 6 5 5 4 f.=X=X=X=X=X5 $XfXfXgX' 2.i.- h i.h ",
"g N U R R R g h z AXfXfXh.$.1X=X=X=X=X=X*X(././././.`.%X*X*X=X*X=X=X=X=X=X=X=X=X=X=X=X=X=X=X=X=X=X=X=X=X3 $XfXfXfX( 2.i.: h i.U ",
"g h U R R N g h x ZXfXfX4.$.2X=X=X=X=X=X=X=X=X=X=X=X=X=X=X=X=X=X=X=X=X=X=X=X=X=X=X=X=X=X=X=X=X=X=X=X=X=X1 $XfXfXfXP 5.a.: h i.U ",
"g g N R R h g h x AXfXfX4.$.2X=X=X=X=X=X=X=X=X=X=X=X=X=X=X=X=X=X=X=X=X=X=X=X=X=X=X=X=X=X=X=X=X=X=X=X=X=X> yXfXfXfXK 2.i.: h i.U ",
"g g h R R h g h D AXfXfX4.$.1X=X=X=X=X=X=XOX%X).`.`.`.`.%X).%X%X=X=X=X=X=X=X*X*X=X*X*X*X=X=X=X=X=X=X=X=X$ uXfXfXfXA >.i.: h i.U ",
"h g h N h g g h D AXfXfX4.$.2X=X=X=X=X=X`.  < 4 8 8 8 0 * > = v =X=X=X=X/.X * % * % * % %   v.=X=X=X=X=X@ dXfXfXfXj >.i.: h i.U ",
"h g g h g g h h  .AXfXgXh.$.2X=X=X=X=X=X).* LXDXDXDXDXDXDXNX{.v =X=X=X=X/.9.PXHXHXHXJXJXJX2Xv.=X=X=X=X=XO hXfXfXfXw 2.i.: h i.U ",
"h g g g g g h h H AXfXfXn.$.2X=X=X=X=X=X).> HXfXfXfXfXfXfXfX+Xv =X=X=X=X^.9.AXfXfXfXfXfXfXh.v.=X=X=X=X=Xo fXfXfXfX3 ! a.- h i.N ",
"U g g g g g U h H ZXfXfXn.%.2X=X=X=X=X=X).* DXfXfXfXfXfXfXfX+Xg =X=X=X=X/.$.ZXfXfXfXfXfXfX3.v.=X=X=X=X=X+ fXfXfXgX> ! i.: h i.h ",
"U g g g g g U h H AXfXfXV.@.2X=X=X=X=X=X).* AXfXfXfXfXfXfXfX+X6 =X=X=X=X/.$.ZXfXfXfXfXfXfX3.b.=X=X=X=X*X@ fXfXfXfX= ! i.- h i.h ",
"U h g g g h N h H DXfXfXV.@.2X=X=X=X=X=X).* ZXfXfXfXfXfXfXfX+X5 =X=X=X=X).%.ZXfXfXfXfXfXfX3.b.=X=X=X=X%X& fXfXfXfX@ h i.- h i.h ",
"N h g g g h h h F DXfXfXV.@.2X=X=X=X=X=X).9 ZXfXfXfXfXfXfXfX+X5 =X=X=X=X).+.BXfXfXfXfXfXfX1.A.=X=X=X=X).> gXfXfXfXO h i.: h i.h ",
"h U g g g U h h H DXfXfXN.+.2X=X=X=X=X=X).y BXfXfXfXfXfXfXfX+X3 =X=X=X=XoX| ZXfXfXfXfXfXfX1.A.=X=X=X=X).3 fXfXfXhX@ h i.: h i.g ",
"h U h g g U g h F DXfXfXN.O.2X=X=X=X=X=X).t BXfXfXfXfXfXfXfX+X5 =X=X=X=X%X} BXgXfXfXfXfXfX<.A.=X=X=X=X(.w fXfXfXaX< h i.- h i.g ",
"g N h g U N g h F DXfXfXN.| 2X=X=X=X-X=X).i BXfXfXfXfXfXfXfX@X4 =X=X=X=X*X[ ZXfXfXfXfXfXfX<.A.=X=X=X=XJ.b fXfXgXuX8 h i.- h i.g ",
"g h U h U h g h F SXfXfXB.| 2X=X=X=X=X=X(.y xXfXfXfXfXfXfXfX@X5 =X=X=X=X=XD ZXfXfXfXfXfXfX<.A.=X=X=X=XG.C fXfXfXyXp h i.: h i.g ",
"g h U h U h g h F SXfXfXC.{ 2X=X=X=X=X=X).3 e e 6 e b m K ( P f =X=X=X=X=Xt wX}.#XtXuXhXfX<.A.=X=X=X=XS.L fXfXfXyXu h i.: h i.g ",
"g g N U N g g h  .DXfXfXF.[ 2X=X=X=X=X=X=X=X=X=X=X=X%X).(././.).=X=X=X=X=XQ M f 5 1 , $ .   A.=X-X=X=XA.( fXfXfX#XF h i.: h i.h ",
"g g h N h g g h X.SXfXfXU.] 2X=X%XQ q q E _.=X=X=X=X=X=X=X=X=X=X=X=X=X=X=X=X=X=X=X=X=X=X=X%X%X=X=X=X=Xb.1.fXfXfX+XF h i.: h i.h ",
"g g g h g g g h &.FXfXfXU.] 2X=Xv 4XPXPX9X> =X=X=X=X=X=X=X=X=X=X=X=X=X=X=X=X=X=X=X=X=X=X=X=X=X=X=X=X=Xf.4.fXfXfX{.H h i.: h i.N ",
"g g g g g g g h &.FXfXfXT.i 2X=XX LXPXPXmX% ).=X=X=X=X=X=X=X=X=X=X=X=X=X=X=X=X=X=X=X=X=X=X=X=X=X=X=X=Xf.n.fXfXfX].X.h i.: h i.U ",
"g g g g g g h h &.GXfXfXT.i 2X=X+ PXPXPX9X0 G.=X=X=X=X=X=X=X=X=X=X=X=X=X=X=X=X=X=X=X=X=X=X=X=X=X=X=X=Xs.M.fXfXfXR.:.h i.: h i.U ",
"h g g g g g h h &.VXfXfX].t 2X=X4 3XbX5X0.- %X=X=X=X=X=X=X=X=X=X=X=X=X=X=X=X=X=X=X=X=X=X=X=X=X=X=X=X=X' C.fXfXfXU.;.h i.: h i.U ",
"h g g g g g h h &.MXfXfX].t 2X=X).6 7 9 & /.=X=X=X=X=X=X=X=X=X=X=X=X=X=X=X=X=X=X=X=X=X=X=X=X=X=X=X=X=X) U.fXfXfXI.5.h i.: h i.h ",
"U h g g g h N h &.nXfXfX}.9 2X=X=X=X`./.*X=X=X=X=X=X=X=X=X=X=X=X=X=X=X=X=X=X=X=X%X`.(.~.H.S.).=X=X=X=X~ E.fXfXfXP.6.h i.: h i.h ",
"U h g g g h U h &.nXfXfX}.9 1X=X=X=X=X=X=X*X`./.J.H.S.b.f.f.a.' =X=X=X=X=X1 @ + % 7 t i | < b.=X=X=X=XQ Q.fXfXfXC.5.h i.: h i.g ",
"U N h g h N U h =.nXfXfX{.0 3X=X=X=X=X=X~.= @.$.9.t.t.,X3X4XK.# =X=X=X=X=X> PXJXHXJXJXHXNX4.b.=X=X=X=XS @XfXfXfXN.7.h i.: h i.g ",
"U U h h h U N h -.jXfXfX$X7 1X=X=X=X=X=X^.i PXDXAXAXZXZXBXvXgXO =X=X=X=X=X1 PXgXfXfXfXfXfXn.v.=X=X=X=XA rXfXfXfXN.5.h i.: h i.g ",
"N U N h N U h h ,.kXfXfXrX* <X=X=X=X=X=X/.i HXfXfXfXfXfXfXfXfX. =X=X=X=X=X5 IXzXfXfXfXfXfXn.k.=X=X=X=XM yXfXfXfXj.2.h i.: h i.g ",
"h U U N U U h h 2.kXfXfXyX* <X=X=X=X=X=X(.i HXfXfXfXfXfXfXfXfX@ =X=X=X=X=Xk UXzXfXfXfXfXfXV.f.=X=X=X=Xf dXaX>X;X_ 2.h i.: h i.g ",
"h U U N U U g h 6.0XfXfXyX% <X=X=X=X=X=X).y HXfXfXfXfXfXfXfXfX@ =X=X=X=X=XA mXxXfXfXfXfXfXN.f.=X=X=X=Xf aX=X=X=X) 2.h i.: h i.g ",
"g U R R R U g h 6.0XfXfXsXX <X=X=X=X=X=X).t HXfXfXfXfXfXfXfXfX= *X=X=X=X=XA mXxXfXfXfXfXfXC.s.=X=X=X=Xj aX=X=X=XW <.h i.- h i.g ",
"g N R R R U g h 6.0XfXfXaXX <X=X=X=X=X=XoX9 HXfXfXfXfXfXfXfXfX$ *X=X=X=X=XQ bXxXfXfXfXfXfXC.s.=X=X=X=Xf aX=X=X=XZ *.h i.: h i.g ",
"g h U R R U g h 6.0XhXfXfXX <X&X=X=X=X=X%X7 HXfXfXfXfXfXfXfXfX& %X=X=X=X=X) qXcXfXfXfXfXfXP.a.=X=X=X=Xv aX=X=X=XZ :.h i.: h i.g ",
"g h U R R N g h z.8XfXfXfXo <X&X=X=X=X=X*X* JXfXfXfXfXfXfXfXfX> `.=X=X=X=X_ 9XcXfXfXfXfXfXT._ =X=X=X=Xb pX=X=X=XB J h i.: h i.h ",
"g g N R U N g h z.6XfXfXfX. <X&X=X=X=X=X*X* JXfXfXfXfXfXfXfXfX< _.=X=X=X=Xk.5XcXfXfXfXfXfXT._ =X=X=X=Xj pX=X=X=Xk Z h i.: h i.h ",
"g g h U U h g h z.7XfXfXfX. ,X&X=X=X=X=X=X% JXfXfXfXfXfXfXfXfX4 (.=X=X=X*Xk.4XvXfXfXfXfXgXR.) =X=X=X=Xn >X=X=X=Xf ! h i.: h i.N ",
"g g h U N h g h x.7XfXfXaX@ y.OX=X=X=X=X=X. JXfXfXfXfXfXfXfXfXq /.=X=X=X=Xl.L.vXfXfXfXfXfXR.) =X=X=X=Xb >X=X=X=X5 h h i.: h i.N ",
"g g g N N g g h c.2XfXpX=X$ t.'.=X=X=X=X=XO KXgXfXfXfXfXfXfXfXw /.=X=X=X=Xb.t.vXfXfXfXfXfXE.) =X=X=X%Xn >X=X=X=X3 h h i.: h i.U ",
"g g g h h g g h c.x.:X=X=X, t.'.=X=X=X=X=X$ CXgXfXfXfXfXfXfXgXb /.=X=X=X=XZ.q.NXfXfXfXfXfXE.) =X=X=X`.J >X=X=X=Xw h h i.- h i.U ",
"h g g g g g h h c._ =X=X=X4 0. X=X=X=X=X=X> nXgXfXfXfXfXfXfXfXG ^.=X=X=X=XZ.#.NXfXfXfXfXfXE.) =X=X=X/.^ >X=X=X=Xj U h i.- h i.R ",
"h g g g g g h h c.^ =X=X=Xf w. X=X=X=X=X=X1 K.T.T.T.I.P.B.N.M.3 /.=X=X=X=XH.r m.V.j.h.4.3.G ) =X=X=X~.^ :X=X=X=Xr Y h i.: h i.R ",
"N g g g g g U h c.S =X=X=XM 9.[.=X=X=X=X=Xd.E E Q W ) _ s.d.l.l.oX=X=X=X=X).d.d.f.l.b.S.S.S.).=X=X=XH.1.;X=X=X=Xc Y h i.: h i.R ",
"N h g g g h U h c.A =X=X=XB $.[.=X=X=X=X=X=X=X=X=X=X=X=X=X=X=X=X=X=X=X=X=X=X=X=X=X=X=X=X=X=X=X=X=X=XS.3.;X=X=X=Xc N h i.: h i.R ",
"U h g g g h U h g.f =X=X=XE #.!.|. X X X X.X X.X X'..X'..X.X.X'.'..XOX.X'.'.'.&XOX.X'.OX'.'..X.X XOXl.h.-X=X=X%Xc h h i.: h i.R ",
"U N g g g h U h g.1 `.oX%XE +.<X<X<X<X<X<X<X<X<X<X<X<X<X<X<X<X<X1X<X<X,X,X,Xy.t.t.t.r.q.q.q.w.9.8.8.S A l.l.l.d.F g h i.: h i.R ",
"N N N N N N N h p.> a U a 2 1 2 2 2 2 2 d d d d g a T $ a Y d 2 2 a T - d R k s s f l l u., l u.l j V V k k k k v g h i.: h i.N "
};
