/* XPM */
static char *Free_Converter_com_sound_83484813[] = {
/* columns rows colors chars-per-pixel */
"64 64 87 1 ",
"  c #1F1E20",
". c #201F21",
"X c #222123",
"o c #262629",
"O c #28272A",
"+ c #2B2A2D",
"@ c #2E2E32",
"# c #302F34",
"$ c #2F3034",
"% c #313236",
"& c #35353A",
"* c #38373C",
"= c #37383D",
"- c #3A393E",
"; c #3C3D42",
": c #403F42",
"> c #3F4045",
", c #424146",
"< c #44444A",
"1 c #48474B",
"2 c #47484D",
"3 c #49494E",
"4 c #534741",
"5 c #4C4D52",
"6 c #504F53",
"7 c #4F5056",
"8 c #4F5258",
"9 c #515156",
"0 c #54555A",
"q c #58565B",
"w c #57585E",
"e c #59595E",
"r c #575960",
"t c #5C5D63",
"y c #605F63",
"u c #5F6066",
"i c #5E6068",
"p c #616166",
"a c #64656B",
"s c #67686D",
"d c #6A6A6E",
"f c #666770",
"g c #676970",
"h c #6B6C72",
"j c #706F72",
"k c #737275",
"l c #75767B",
"z c #787779",
"x c #77787D",
"c c #7A7A7D",
"v c #787780",
"b c #777981",
"n c #7D7E82",
"m c #7E7E88",
"M c #807F83",
"N c #7F8085",
"B c #7E8189",
"V c #818185",
"C c #83848A",
"Z c #88878D",
"A c #87888C",
"S c #8A898E",
"D c #878890",
"F c #8C8C93",
"G c #929297",
"H c #94959A",
"J c #96989C",
"K c #9A999E",
"L c #9B9BA2",
"P c #9FA0A3",
"I c #A0A1A7",
"U c #A4A4AA",
"Y c #A7A9AE",
"T c #A9AAAE",
"R c #ACADB3",
"E c #B0B1B7",
"W c #B3B4BB",
"Q c #B7B8BF",
"! c #B8B8BE",
"~ c #BBBCC2",
"^ c #BFC0C7",
"/ c #C0C1C7",
"( c #C4C5CB",
") c #CACBD2",
"_ c #D0D1D7",
"` c #D2D3D9",
"' c #D6D8DB",
/* pixels */
"4444444444444444444444444444444444444444444444444444444444444444",
"4444444444444444444444444444444444444444444444444444444444444444",
"4444444444444444444444444444444444444444444444444444444444444444",
"4444444444444444444444444444444444444444444444444444444444444444",
"444444444444444AsssspiitteeetqeertqtqeettttiiiafM444444444444444",
"444444444444444p<,,:,,,>::;:::,,:::;,,,:<<<<:113j444444444444444",
"444444444444444p,-&&&&%%&&&&&&*&==;**;==****:;:<h444444444444444",
"444444444444444t:-%%@&%;=;,355533555532:;**&&*<<f444444444444444",
"444444444444444e;-;%@#%&&;>2<=$@@%;253<<;;%%*3<<f444444444444444",
"444444444444444e-=;*%%%%&&$@$&;>:;-##;:;;;&;<72<f444444444444444",
"444444444444444e;;,;&%%%$@=><>>>><<33:&;;;;>2r2<f444444444444444",
"444444444444444e;;3;*&%#;>5323<12235375:=;;<7i5:a444444444444444",
"444444444444444q=>9<-=$>58773331<213qq09<;>2rf7<a444444444444444",
"444444444444444q-,t2;%>80w8531312<36ekfr8<>7iv8<p444444444444444",
"444444444444444w=<g7>=70ue0096112<36jFLli8>8fmr>p444444444444444",
"4444444444444440;3lw&2ttaaaeq933<21yZT~~bi8<vMi;p444444444444444",
"444444444444444q-5Bi=0tgNckdu063117cU/)`~fr<vFi:p444444444444444",
"444444444444444e-7C7>tiBBBFNku6<,1yL/))`)Ff80Di:p444444444444444",
"444444444444444q=7B;8ikHPPPJFt=$%*qR())()Efr;mt:t444444444444444",
"4444444444444440=7l=wtBLIRERJ%XXX.of~~/~((hr;hi:p444444444444444",
"4444444444444449=5i;wtDLYEWWs.+,<*X@K!!!~~br;rr:i444444444444444",
"4444444444444449=5r=0tDLYRRT3.6w1p+ovEWWE~m0;qw:p444444444444444",
"4444444444444449-5t-0tCGPPTP3.4u5poOkTRRRRb0;rr:p444444444444444",
"4444444444444440=0g-0wlDGJJGeOX%%@ %vIIUUUf0;ir:i444444444444444",
"4444444444444440=9n;00dNAACVk4+X  +6MFGJKGyr:hi:p444444444444444",
"4444444444444440-7C,70tzMMMMcd6--*4jcMASFxrq<mi:i444444444444444",
"4444444444444440=5Bt<87dccMcMckdadjkzMMMCi08iMi:p444444444444444",
"4444444444444440=2bf&070zMcMczzzkkkzczMMf8r:lDr:p444444444444444",
"444444444444444q-<ga>273ecMccczzzkzzzccjr5r<mMr:i444444444444444",
"4444444444444440-,ur3+831yccccczzzkzzzd65r;5vM0:p444444444444444",
"444444444444444q->q85%$03<9jccczzzzcke36r;;ivv9:i444444444444444",
"4444444444444440>-353=%$63<19pjjjdp01139;%;fff5:p444444444444444",
"444444444444444w;;>>>-%&%$+>37753335>&&&==5uuu5>u444444444444444",
"444444444444444w;->;;-%&&%&%+$&&=-$$&&&&%=8iuu2>i444444444444444",
"444444444444444w;-;;-;%%%&%%%%%%$$$=&&&===wtuu2;u444444444444444",
"444444444444444t;;----&&&&=%@%+++O$$&&&&=>wtww2>p444444444444444",
"444444444444444w>;====&&&&%&&&&%%%=$&&&&&>qww01>p444444444444444",
"444444444444444t;-=====&&&%&;22<222>&&&&=200002>p444444444444444",
"444444444444444t;-&====&&==52-=:;;;<8-=&=200002>p444444444444444",
"444444444444444t>-&&===&&-w>>::,>><>:e>==500892>a444444444444444",
"444444444444444t>-&&===&;r:2::,:>:1,1;s==808972>a444444444444444",
"444444444444444t>-&&&=-&393<<:::>::1153t=888862>a444444444444444",
"444444444444444t>-&&==-=i:r::12=$=4>15<k>989773>a444444444444444",
"444444444444444u;;&&==-;i07::5%qs&-1,2wuw988883>a444444444444444",
"444444444444444u>>&&=-;5qa2:4:fRTA-q,3y8s989895>a444444444444444",
"444444444444444u->&==-;70f2:3:F`'~-646u8j889993>a444444444444444",
"444444444444444u>>&&=-=3qf1:::1HTy-3>5p0s885583<g444444444444444",
"444444444444444t>=&====>t09:::#@++:4>8wsw599953>g444444444444444",
"444444444444444u;>&&&**&r<r>;;****::2r>v5555575<a444444444444444",
"444444444444444t*>&&&&&&<852;*;**;;2588i<257552<a444444444444444",
"444444444444444t;;%&&&&%&5<2<<;>::<25<f<<<25553:g444444444444444",
"444444444444444t;;&&&&&&#&5>;<>><35<<r<><<22553<a444444444444444",
"444444444444444t;;#%#%%##&&;>;;;:;;<5>>;;><2222;g444444444444444",
"444444444444444y;;%%#######&&=*>::::;;;=;;>2<22<s444444444444444",
"444444444444444u;;%####%##&&****;*;;==&;&&;;,<2<d444444444444444",
"444444444444444u;;%#@&%%&&&&*=;;:;;*;=&&&;&&;<2,d444444444444444",
"444444444444444u=;#&#&&&&&&*********;&&***=%;;3<h444444444444444",
"444444444444444t;;&&%%&%&%&%&%&&&&&&&&**====*;,,h444444444444444",
"444444444444444u;;:*;****&:=**=;*;*:;:;;;;><;2<<h444444444444444",
"444444444444444PCMMvvxxxxzvlxcxlvvvvxvlvcnNBBCCCP444444444444444",
"4444444444444444444444444444444444444444444444444444444444444444",
"4444444444444444444444444444444444444444444444444444444444444444",
"4444444444444444444444444444444444444444444444444444444444444444",
"4444444444444444444444444444444444444444444444444444444444444444"
};
