/* XPM */
static char *reddoor[] = {
/* columns rows colors chars-per-pixel */
"64 64 256 2",
"   c black",
".  c #080705",
"X  c #0A0904",
"o  c #0C0C0B",
"O  c #120F07",
"+  c #110F0A",
"@  c #15130B",
"#  c #1A160B",
"$  c #1C190E",
"%  c #141414",
"&  c #1C1A10",
"*  c #1C1C1D",
"=  c #211C0E",
"-  c #201C12",
";  c #28200C",
":  c #252112",
">  c #2D2614",
",  c #27231F",
"<  c #362A13",
"1  c #392D14",
"2  c #352E19",
"3  c #33301D",
"4  c #3C331A",
"5  c #212121",
"6  c #2C2823",
"7  c #272728",
"8  c #272828",
"9  c #2B2C2C",
"0  c #332F2A",
"q  c #363124",
"w  c #3C3623",
"e  c #3E3A24",
"r  c #3D362C",
"t  c #343434",
"y  c #393733",
"u  c #3D3935",
"i  c #3B3B3B",
"p  c #412F17",
"a  c #413119",
"s  c #48331B",
"d  c #443A1E",
"f  c #483818",
"g  c #543C1C",
"h  c #443C23",
"j  c #4A3C21",
"k  c #513C24",
"l  c #403B35",
"z  c #483F33",
"x  c #433E3B",
"c  c #4C4223",
"v  c #464229",
"b  c #4A452A",
"n  c #4F492D",
"m  c #524524",
"M  c #5C4020",
"N  c #554826",
"B  c #584B27",
"V  c #584228",
"C  c #504A2E",
"Z  c #5B4E29",
"A  c #5F502A",
"S  c #44413D",
"D  c #4C443C",
"F  c #534D30",
"G  c #5B4C30",
"H  c #51463E",
"J  c #575133",
"K  c #5B5434",
"L  c #5E5837",
"P  c #6C4824",
"I  c #6D4729",
"U  c #6F482A",
"Y  c #744C28",
"T  c #63542B",
"R  c #67582D",
"E  c #6C5B2F",
"W  c #644F32",
"Q  c #655034",
"!  c #6E5E31",
"~  c #645D3A",
"^  c #69623D",
"/  c #736234",
"(  c #786736",
")  c #7C6A37",
"_  c #3F4141",
"`  c #434341",
"'  c #4D4943",
"]  c #474849",
"[  c #4B4D4E",
"{  c #534A41",
"}  c #565046",
"|  c #5C5146",
" . c #5C5449",
".. c #4E4F50",
"X. c #4F5151",
"o. c #515353",
"O. c #555758",
"+. c #565858",
"@. c #595B5C",
"#. c #615145",
"$. c #665A41",
"%. c #6C5C44",
"&. c #64554A",
"*. c #63594D",
"=. c #6A5C4E",
"-. c #705E46",
";. c #655C50",
":. c #6F5D50",
">. c #746C43",
",. c #73624D",
"<. c #797146",
"1. c #7E764A",
"2. c #746452",
"3. c #7A6555",
"4. c #7B6957",
"5. c #5F6162",
"6. c #626465",
"7. c #656768",
"8. c #67696A",
"9. c #6A6C6D",
"0. c #6C6F70",
"q. c #6E7071",
"w. c #707374",
"e. c #797C7D",
"r. c #ED1C24",
"t. c #815736",
"y. c #905C34",
"u. c #925F38",
"i. c #87733C",
"p. c #8B773E",
"a. c #9C6F4D",
"s. c #867C4D",
"d. c #897F4E",
"f. c #927D41",
"g. c #816B5A",
"h. c #886D59",
"j. c #877C57",
"k. c #897F50",
"l. c #8C715D",
"z. c #94755D",
"x. c #9A775C",
"c. c #9E795C",
"v. c #9C7353",
"b. c #9B8444",
"n. c #8C8352",
"m. c #918754",
"M. c #938956",
"N. c #968C58",
"B. c #988E59",
"V. c #9C925B",
"C. c #A48C49",
"Z. c #AC934C",
"A. c #B2984F",
"S. c #A2975F",
"D. c #A3985F",
"F. c #B79C51",
"G. c #B89D52",
"H. c #BEA255",
"J. c #A69A60",
"K. c #AA9E63",
"L. c #ADA265",
"P. c #B0A467",
"I. c #B1A568",
"U. c #B6A96B",
"Y. c #BAAD6D",
"T. c #BDB06F",
"R. c #B4A57A",
"E. c #BFB270",
"W. c #C5A757",
"Q. c #CBAD5B",
"!. c #CFB05C",
"~. c #D3B45E",
"^. c #D6B660",
"/. c #DDBC62",
"(. c #DCBF6F",
"). c #C2AE76",
"_. c #C4B373",
"`. c #CCB574",
"'. c #C7B974",
"]. c #CBBD77",
"[. c #CDBF78",
"{. c #D0B773",
"}. c #D4BA71",
"|. c #D9BE70",
" X c #E0BF64",
".X c #DEC06F",
"XX c #CFC078",
"oX c #D1C37A",
"OX c #D7C87E",
"+X c #D9CA7F",
"@X c #E5C366",
"#X c #E3C46D",
"$X c #E9C769",
"%X c #EECB6B",
"&X c #F0CF70",
"*X c #F1D173",
"=X c #F3D679",
"-X c #F5D97D",
";X c #7E8081",
":X c #838687",
">X c #878886",
",X c #8C8B85",
"<X c #898A8A",
"1X c #959387",
"2X c #9A978A",
"3X c #909090",
"4X c #9F9D90",
"5X c #9C9F9F",
"6X c #ADAA9C",
"7X c #A0A0A0",
"8X c #A8AAAB",
"9X c #B5B2A4",
"0X c #BAB6A7",
"qX c #BEBAA9",
"wX c #B4B4B4",
"eX c #C2BC9D",
"rX c #DBCD80",
"tX c #DFD083",
"yX c #E4D586",
"uX c #EFDF8B",
"iX c #F7DE82",
"pX c #F8E085",
"aX c #F3E38F",
"sX c #FAE58B",
"dX c #F6E690",
"fX c #F8E791",
"gX c #FFEE96",
"hX c #FFEE9C",
"jX c #CBC7B6",
"kX c #D0CCBA",
"lX c #D6D2BF",
"zX c #FFF0A4",
"xX c #FFF0A9",
"cX c #FFF2B3",
"vX c #FFF3BD",
"bX c #C0C0C0",
"nX c #C6C8C8",
"mX c #DAD6C2",
"MX c #DCD8C2",
"NX c #D9D9D9",
"BX c #E2DEC8",
"VX c #FFF5C6",
"CX c #FFF6CA",
"ZX c #ECE7D0",
"AX c #F1ECD5",
"SX c #FFF7D3",
"DX c #FFF8D6",
"FX c #F6F1D9",
"GX c #FCF6DC",
"HX c #FFF9DC",
"JX c gray91",
"KX c #FFFAE3",
"LX c #FFFBEA",
"PX c #FFFCF2",
"IX c #FEFDFD",
"UX c #F3F3F3",
/* pixels */
"a 4 p p p p p p =.*. .} ' ' S u y u u u t i x i i i i t t t i y t i i i _ i ` ` ` ` S ` S i ` ` ` ` i u i ` ` ] ' x y a a a a 1 ",
"P P P P P P P P 5 wXwXNXNXJXUXIXIXIXIXIXIXIXIXPXLXLXKXKXHXHXDXSXSXCXVXVXVXVXVXVXVXVXVXVXVXVXVXCXVXVXCXCXCXCXCXCXSXeXD P P P P P ",
"y.y.y.y.y.y.y.y.t LXvXvXcXcXxXxXxXzXzXhXgXgXgXgXgXgXgXgXgXgXgXgXgXgXgXgXgXgXgXgXgXgXgXgXgXgXgXgXgXgXgXgXgXgXgXgXgXE.&.y.y.y.y.y.",
"g g g g g g g 1 t SXgXgXgXgXgXgXgXgXgXgXgXgXgXgXgXgXgXgXgXgXgXgXgXgXgXgXgXgXgXgXgXgXgXgXgXgXgXgXgXgXgXgXgXgXgXgXgXY.` g ; 1 g g ",
"f f P Y Y Y Y g t DXgXgXXX^ L K J F F F n b v e e e e e e e b n F J K K L L ^ >.<.1.d.n.N.V.D.L.U.E.XXrXrXfXgXgXgXT.{ y.; g y.P ",
"f f P Y Y Y M g t HXgXgXK.t 8.8.0.0.q.q.q.w.w.w.w.w.w.q.q.q.0.0.7.7.7.7.6.6.@.+.+.+.o...[ [ ] ] _ _ i t o T.gXgXgXY.D y.; g y.P ",
"f f k Y Y Y g g t DXgXgXJ._ ;X)._.`.`.`.{.}.}.}.|.|.|.|..X.X.X.X.X.X.X.X#X.X.X.X|.|.|.|.|.}.}.{.`.`.`._.0 Y.gXgXgXY.{ y.; g y.P ",
"g f g P Y Y g g t DXgXgXN.] :X&X%X%X%X%X%X%X%X%X%X%X%X%X%X%X%X%X%X%X%X%X%X%X%X%X%X%X%X%X%X%X%X%X%X%X%X%Xh Y.gXgXgXU.{ y.; g y.P ",
"P f f M Y M f g t DXgXgXN.[ :X%X%X%X%X%X%X%X%X%X%X%X%X%X%X%X%X%X%X%X%X%X%X%X%X%X%X%X%X%X%X%X%X%X%X%X%X%Xc T.gXgXgXP.| y.; g y.g ",
"P f g f M g f g i DXgXgXN.[ :X%X%X%X%X%X%X                        %X%X%X                        %X%X%X%Xc T.gXgXgXL.| y.; g y.g ",
"Y g f f g f f g S SXgXgXM.X.:X%X%X%X%X%X@X  r.r.r.r.r.r.r.r.r.r.  %X%X%X  r.r.r.r.r.r.r.r.r.r.  %X%X%X%XN T.gXgXgXD.} y.; g y.g ",
"Y g f f f f g g S DXgXgXn.X.:X%X%X%X%X%X/.  r.r.r.r.r.r.r.r.r.r.  %X%X%X  r.r.r.r.r.r.r.r.r.r.  %X%X%X%XN T.gXgXgXV. .y.; g y.f ",
"P Y f f f g Y g x SXgXgXn.X.:X%X%X%X%X%X^.  r.r.r.r.r.r.r.r.r.r.  %X%X%X  r.r.r.r.r.r.r.r.r.r.  %X%X%X%XN T.gXgXgXB. .y.; g y.f ",
"P Y g f f g Y g x SXgXgXn.O.:X%X%X%X%X%X^.  r.r.r.r.r.r.r.r.r.r.  %X%X%X  r.r.r.r.r.r.r.r.r.r.  %X%X%X%XN T.gXgXgXM.;.y.; g y.f ",
"M Y Y f g Y Y g l DXgXgXn.O.>X%X%X%X%X%X^.  r.r.r.r.r.r.r.r.r.r.  %X%X%X  r.r.r.r.r.r.r.r.r.r.  %X%X%X%XN T.gXgXgXn.=.y.; g y.f ",
"g Y Y Y g Y M g u DXgXgXn.@.>X%X%X%X%X%X^.  r.r.r.r.r.r.r.r.r.r.  %X%X%X  r.r.r.r.r.r.r.r.r.r.  %X%X%X%Xc XXgXgXgX1.:.y.; g y.g ",
"f P Y Y M Y g g u DXgXgXn.+.>X%X%X%X%X%X~.  r.r.r.r.r.r.r.r.r.r.  %X%X%X  r.r.r.r.r.r.r.r.r.r.  %X%X%X%Xc oXgXgXgX<.2.y.; g y.g ",
"f P Y Y Y Y g g u DXgXgXn.+.>X%X%X%X%X%X@X  r.r.r.r.r.r.r.r.r.r.  %X%X%X  r.r.r.r.r.r.r.r.r.r.  %X%X%X%X4 +XgXgXgX>.2.y.; g y.g ",
"f M P Y Y Y f g x DXgXgXd.@.>X%X%X%X%X%X%X                        %X%X%X                        %X%X%X%X2 +XgXgXgX^ ,.y.; g y.P ",
"f g P Y Y M f g l DXgXgX1.@.>X%X%X%X%X%X%X%X%X%X%X%X%X%X%X%X%X%X%X%X%X%X%X%X%X%X%X%X%X%X%X%X%X%X%X%X%X%X< +XgXgXgXL 2.y.; g y.P ",
"f f M Y Y g f g x SXgXgX1.@.,X%X%X%X%X%X%X%X%X%X%X%X%X%X%X%X%X%X%X%X%X%X%X%X%X%X%X%X%X%X%X%X%X%X%X%X%X%X; yXgXgXgXJ 2.y.; g y.P ",
"f f g Y Y g f g x DXgXgXs.@.,X%X%X%X%X%X%X X/./././././././.@X$X%X%X%X%X%X%X$X$X%X$X$X$X%X%X%X%X%X%X%X%X# uXgXgXgXC %.y.; g y.P ",
"g f g M g f f g x HXgXgX1.@.>X%X%X%X%X%X/.                      %X%X%X%X                      %X%X%X%X%X@ dXgXgXgXv -.y.; g y.P ",
"g f f g f f g g { DXgXgXs.@.,X%X%X%X%X%X^.  r.r.r.r.r.r.r.r.r.  %X&X%X%X  r.r.r.r.r.r.r.r.r.  %X%X%X%X%XO fXgXgXgX3 -.y.; g y.P ",
"g f f f f f g g H DXgXgXn.+.,X%X%X%X%X%X^.  r.r.r.r.r.r.r.r.r.  %X%X%X%X  r.r.r.r.r.r.r.r.r.  %X%X%X%X%XX gXgXgXgX3 Q y.; g y.M ",
"P f f f f f P g H DXgXgXn.O.,X%X%X%X%X%X^.  r.r.r.r.r.r.r.r.r.  %X%X%X%X  r.r.r.r.r.r.r.r.r.  %X%X%X%X%Xo gXgXgXgX: Q y.; g y.g ",
"P f f f f f P g H DXgXgXm.o.,X%X%X%X%X%X~.  r.r.r.r.r.r.r.r.r.  %X%X%X%X  r.r.r.r.r.r.r.r.r.  %X%X%X&X@X@ gXgXgXgX& Q y.; g y.g ",
"P g f f f g M g H HXgXgXM.o.,X%X%X%X%X%X~.  r.r.r.r.r.r.r.r.r.  %X%X%X%X  r.r.r.r.r.r.r.r.r.  %X%X%X&X@X& gXgXgXgX@ g y.; g y.f ",
"M g f f f g g g D HXgXgXM.o.,X%X%X%X%X%X~.  r.r.r.r.r.r.r.r.r.  %X%X%X%X  r.r.r.r.r.r.r.r.r.  %X%X%X%X~.: gXgXgXgX+ g y.; g y.f ",
"g P f f f P g g H HXgXgXM.X.,X%X%X%X%X%X^.  r.r.r.r.r.r.r.r.r.  %X%X%X%X  r.r.r.r.r.r.r.r.r.  %X%X%X%X~.3 gXgXgXfX% f y.; g y.f ",
"g P g f f P f g D HXgXgXN.X.,X%X%X%X%X%X~.  r.r.r.r.r.r.r.r.r.  %X%X%X%X  r.r.r.r.r.r.r.r.r.  %X%X%X%X!.e gXgXgXfX, g y.; g y.f ",
"f M g f P M f g D HXgXgXN.[ ,X%X%X%X%X%X~.  r.r.r.r.r.r.r.r.r.  %X%X%X%X  r.r.r.r.r.r.r.r.r.  %X%X%X%XH.v gXgXgXuX6 g y.; g y.f ",
"f g P g P g f g D GXgXgXB.[ ,X%X%X%X%X%X!.  r.r.r.r.r.r.r.r.r.  %X%X%X%X  r.r.r.r.r.r.r.r.r.  %X%X%X%XG.F gXgXgXyX0 g y.; g y.f ",
"f g P g P g f g H GXgXgXV.] ,X%X%X%X%X%X~.  r.r.r.r.r.r.r.r.r.  %X%X%X%X  r.r.r.r.r.r.r.r.r.  %X%X%X&XZ.K gXgXgXyXu g y.; g y.f ",
"f f M P M f f g H HXgXgXD.` ,X%X%X%X%X%X%X                      %X%X%X%X                      %X%X%X%XC.~ gXgXgXOXD g y.; g y.g ",
"f f g M g f f g } HXgXgXL._ ,X%X@XR q q T ^.%X%X%X%X%X%X&X%X%X%X%X%X%X%X%X%X%X%X%X%X%X%X%X$X$X%X%X%X%Xb.>.gXgXgX].D g y.; g y.g ",
"f f f g f f f g #.FXgXgXL._ ,X%Xc <XIXIX7X> %X%X%X%X%X%X%X%X%X%X%X%X%X%X%X%X%X%X%X%X%X%X%X%X%X%X%X%X%Xf.1.gXgXgX'.H g y.; g y.M ",
"f f f f f f f g #.FXgXgXP.i ,X%Xo IXIXIXNX% ~.%X%X%X%X%X%X%X%X%X%X%X%X%X%X%X%X%X%X%X%X&X%X%X%X%X%X%X%Xp.d.gXgXgX_.| g y.; g y.P ",
"f f f f f f g g #.AXgXgXU.i ,X%X+ IXIXIX8X7 G.%X%X%X%X%X%X%X%X%X%X%X%X%X&X%X%X%X%X%X%X%X%X%X%X%X%X%X%Xi.N.gXgXgXU.%.g y.; g y.P ",
"g f f f f f g g #.ZXgXgXE.y ,X%X2 <XnX5X7.= $X%X%X%X%X%X%X%X%X%X%X%X%X%X%X%X%X%X%X%X%X%X%X%X%X%X%X%X%X) V.gXgXgXL.=.g y.; g y.P ",
"g f f f f f M g #.BXgXgX_.t ,X%X~.4 5 9 - Q.%X%X%X%X%X%X%X%X%X%X%X%X%X%X%X%X%X%X%X%X%X%X%X%X%X%X%X%X%X/ L.gXgXgXL.:.g y.; g y.g ",
"P g f f f g M g &.MXgXgX'.9 ,X%X%X%X/.Q.                          %X%X                          %X%X%X! Y.gXgXgXJ.3.g y.; g y.g ",
"P g f f f g P g &.mXgXgX].9 ,X%X%X%X%X%X  r.r.r.r.r.r.r.r.r.r.r.  %X%X  r.r.r.r.r.r.r.r.r.r.r.  %X%X%XR T.gXgXgXV.2.g y.; g y.f ",
"P M g f g M P g &.mXgXgXXX8 >X%X%X%X%X%X  r.r.r.r.r.r.r.r.r.r.r.  %X%X  r.r.r.r.r.r.r.r.r.r.r.  %X%X%XA oXgXgXgXN.4.g y.; g y.f ",
"P P g g g P M g =.kXgXgX+X5 >X%X%X%X%X%X  r.r.r.r.r.r.r.r.r.r.r.  %X%X  r.r.r.r.r.r.r.r.r.r.r.  %X%X%XZ +XgXgXgXM.3.g y.; g y.f ",
"M P M g M P g g =.kXgXgXtX* >X%X%X%X%X%X  r.r.r.r.r.r.r.r.r.r.r.  %X%X  r.r.r.r.r.r.r.r.r.r.r.  %X%X%Xm yXgXgXgXn.,.g y.; g y.f ",
"g P P M P P g g :.jXgXgXyX* :X%X%X%X%X%X  r.r.r.r.r.r.r.r.r.r.r.  %X%X  r.r.r.r.r.r.r.r.r.r.r.  %X%X%Xd aXsX-X*X( ,.g y.; g y.f ",
"g P P M P P f g 2.qXgXgXyX% :X%X%X%X%X%X  r.r.r.r.r.r.r.r.r.r.r.  %X%X  r.r.r.r.r.r.r.r.r.r.r.  %X%X%X4 fX%X%X%X/ ,.g y.; g y.f ",
"f P Y Y Y P f g ,.qXgXgXaXo :X%X%X%X%X%X  r.r.r.r.r.r.r.r.r.r.r.  %X%X  r.r.r.r.r.r.r.r.r.r.r.  %X%X%Xc sX%X%X%X! %.g y.; g y.f ",
"f M Y Y Y P f g 3.0XgXgXfXo :X%X%X%X%X%X  r.r.r.r.r.r.r.r.r.r.r.  %X%X  r.r.r.r.r.r.r.r.r.r.r.  %X%X%Xd sX%X%X%XA %.g y.; g y.f ",
"f g P Y Y P f g 3.9XgXgXfXo :X#X%X%X%X%X  r.r.r.r.r.r.r.r.r.r.r.  %X%X  r.r.r.r.r.r.r.r.r.r.r.  %X%X%Xv sX%X%X%XZ $.g y.; g y.f ",
"f g P Y Y M f g g.6XgXgXgXX :X#X%X%X%X%X  r.r.r.r.r.r.r.r.r.r.r.  %X%X  r.r.r.r.r.r.r.r.r.r.r.  %X%X%Xc pX%X%X%XN Z g y.; g y.g ",
"f f M Y P M f g h.4XgXgXgXX ;X#X%X%X%X%X  r.r.r.r.r.r.r.r.r.r.r.  %X%X  r.r.r.r.r.r.r.r.r.r.r.  %X%X%Xv -X%X%X%Xh Z g y.; g y.g ",
"f f g P P g f g l.2XgXgXgX@ :X.X%X%X%X%X  r.r.r.r.r.r.r.r.r.r.r.  %X%X  r.r.r.r.r.r.r.r.r.r.r.  %X%X%Xb -X%X%X%Xd Q g y.; g y.M ",
"f f g P M g f g l.1XgXgXpX# e.(.%X%X%X%X  r.r.r.r.r.r.r.r.r.r.r.  %X%X  r.r.r.r.r.r.r.r.r.r.r.  %X%X%Xv -X%X%X%X4 g g y.; g y.M ",
"f f f M M f f g l.,XgXpX%X$ w.(.%X%X%X%X  r.r.r.r.r.r.r.r.r.r.r.  %X%X  r.r.r.r.r.r.r.r.r.r.r.  %X%X@Xb -X&X%X%X2 g g y.; g y.P ",
"f f f g g f f g z.j.=X%X%X> q.(.%X%X%X%X  r.r.r.r.r.r.r.r.r.r.r.  %X%X  r.r.r.r.r.r.r.r.r.r.r.  %X%X^.J -X%X%X%Xq g g y.= g y.P ",
"g f f f f f g g z.( %X%X%X4 9.}.%X%X%X%X  r.r.r.r.r.r.r.r.r.r.r.  %X%X  r.r.r.r.r.r.r.r.r.r.r.  %X%X!.~ =X%X%X%Xw P g y.; g y.Y ",
"g f f f f f g g x.E %X%X%Xd 7.}.%X%X%X%X  r.r.r.r.r.r.r.r.r.r.r.  %X%X  r.r.r.r.r.r.r.r.r.r.r.  %X%XW.~ =X%X%X%Xr P g y.; g y.Y ",
"M f f f f f P g x.A %X%X%Xm 5.`.%X%X%X%X                          %X%X                          %X%XA.>.*X%X%X%XD P g y.; g y.Y ",
"M g f f f g P g c.N %X%X%XN 5.`.%X%X%X%X%X%X%X%X%X%X%X%X%X%X%X%X%X%X%X%X%X%X%X%X%X%X%X%X%X%X%X%X%X%XZ.<.*X%X%X%Xl M g y.; g y.Y ",
"P g f f f g P g v.d %X%X%XA O.R.}.}.{.}.|.}.}.|.|.|.|.|.(.(.(.(.(.(.(.(..X.X.X.X(.|.(.(.|..X|..X(..Xp.s.&X%X%X$XS g g y.; g y.Y ",
"P M f f f g P g a.>  X X@XT X.:X:X:X:X:X:X:X:X:X:X:X:X:X:X:X:X:X:X:X:X;X;X:Xe.e.w.w.q.q.9.8.6.5.5.5.A B f.f.f.p.D f g y.; g y.Y ",
"M M M M M M M g u.; p P a < < < 1 1 1 1 s s s s s a U = p U s < < p U - s Y s a a s k k / > k t.V j V V j j j f c f g y.; g y.M "
};
